<svg width="14" height="13" viewBox="0 0 14 13" fill="none" xmlns="http://www.w3.org/2000/svg">
<g clip-path="url(#clip0_509_4)">
<path d="M13.3749 11.0484L12.3333 1.24845C12.3333 0.632331 11.856 0.133301 11.2667 0.133301H7H2.73333C2.144 0.133301 1.66667 0.632331 1.66667 1.24845L0.625066 11.0484C0.609599 11.1248 0.599998 11.2034 0.599998 11.2848C0.599998 11.9009 1.07733 12.4 1.66667 12.4H7H12.3333C12.9227 12.4 13.4 11.9009 13.4 11.2848C13.4 11.2034 13.3904 11.1248 13.3749 11.0484ZM9.66666 2.86988V3.47876C9.66666 5.01599 8.4704 6.26663 7 6.26663C5.5296 6.26663 4.33333 5.01599 4.33333 3.47876V2.86988C4.02346 2.75502 3.8 2.44836 3.8 2.08482C3.8 1.62314 4.1584 1.24845 4.6 1.24845C5.0416 1.24845 5.4 1.62314 5.4 2.08482V3.47876C5.4 4.40099 6.11786 5.15148 7 5.15148C7.88213 5.15148 8.6 4.40099 8.6 3.47876V2.08482C8.6 1.62314 8.9584 1.24845 9.4 1.24845C9.8416 1.24845 10.2 1.62314 10.2 2.08482C10.2 2.44836 9.97653 2.75502 9.66666 2.86988Z" fill="#F9F9F9"/>
</g>
<defs>
<clipPath id="clip0_509_4">
<rect width="14" height="13" fill="white"/>
</clipPath>
</defs>
</svg>
