<svg width="13" height="17" viewBox="0 0 13 17" fill="none" xmlns="http://www.w3.org/2000/svg">
<path d="M7.1805 16.618C8.88824 14.4808 12.7831 9.30102 12.7831 6.39154C12.7831 2.86288 9.9202 0 6.39154 0C2.86288 0 0 2.86288 0 6.39154C0 9.30102 3.89484 14.4808 5.60258 16.618C6.01204 17.1273 6.77104 17.1273 7.1805 16.618ZM6.39154 4.26103C6.95659 4.26103 7.49849 4.48549 7.89804 4.88504C8.29759 5.28459 8.52205 5.82649 8.52205 6.39154C8.52205 6.95659 8.29759 7.49849 7.89804 7.89804C7.49849 8.29759 6.95659 8.52205 6.39154 8.52205C5.82649 8.52205 5.28459 8.29759 4.88504 7.89804C4.48549 7.49849 4.26103 6.95659 4.26103 6.39154C4.26103 5.82649 4.48549 5.28459 4.88504 4.88504C5.28459 4.48549 5.82649 4.26103 6.39154 4.26103Z" fill="#DB3022"/>
</svg>
