<svg width="22" height="20" viewBox="0 0 22 20" fill="none" xmlns="http://www.w3.org/2000/svg">
<g clip-path="url(#clip0_506_2)">
<path d="M7.75002 0.166748L5.76752 2.33341H2.33335C1.14169 2.33341 0.166687 3.30841 0.166687 4.50008V17.5001C0.166687 18.6917 1.14169 19.6667 2.33335 19.6667H19.6667C20.8584 19.6667 21.8334 18.6917 21.8334 17.5001V4.50008C21.8334 3.30841 20.8584 2.33341 19.6667 2.33341H16.2325L14.25 0.166748H7.75002ZM11 16.4167C8.01002 16.4167 5.58335 13.9901 5.58335 11.0001C5.58335 8.01008 8.01002 5.58342 11 5.58342C13.99 5.58342 16.4167 8.01008 16.4167 11.0001C16.4167 13.9901 13.99 16.4167 11 16.4167Z" fill="white"/>
</g>
<defs>
<clipPath id="clip0_506_2">
<rect width="22" height="20" fill="white"/>
</clipPath>
</defs>
</svg>
