<svg width="21" height="21" viewBox="0 0 21 21" fill="none" xmlns="http://www.w3.org/2000/svg">
<path fill-rule="evenodd" clip-rule="evenodd" d="M10.5 18.5C14.9183 18.5 18.5 14.9183 18.5 10.5C18.5 6.08172 14.9183 2.5 10.5 2.5C6.08172 2.5 2.5 6.08172 2.5 10.5C2.5 14.9183 6.08172 18.5 10.5 18.5Z" stroke="black" stroke-linecap="round" stroke-linejoin="round"/>
<path d="M8 9C8.55228 9 9 8.55228 9 8C9 7.44772 8.55228 7 8 7C7.44772 7 7 7.44772 7 8C7 8.55228 7.44772 9 8 9Z" fill="black"/>
<path d="M13 9C13.5523 9 14 8.55228 14 8C14 7.44772 13.5523 7 13 7C12.4477 7 12 7.44772 12 8C12 8.55228 12.4477 9 13 9Z" fill="black"/>
<path d="M7.5 13.5C8.10286 12.1667 9.10286 11.5 10.5 11.5C11.8971 11.5 12.8971 12.1667 13.5 13.5" stroke="black" stroke-linecap="round" stroke-linejoin="round"/>
</svg>
