<svg width="26" height="20" viewBox="0 0 26 20" fill="none" xmlns="http://www.w3.org/2000/svg">
<path d="M15.9999 20.0041C15.8683 20.0049 15.7379 19.9796 15.616 19.9299C15.4942 19.8801 15.3834 19.8068 15.2899 19.7141C15.1962 19.6211 15.1218 19.5105 15.071 19.3887C15.0203 19.2668 14.9941 19.1361 14.9941 19.0041C14.9941 18.8721 15.0203 18.7414 15.071 18.6195C15.1218 18.4977 15.1962 18.3871 15.2899 18.2941L23.5899 10.0041L15.2899 1.71409C15.1016 1.52579 14.9958 1.27039 14.9958 1.00409C14.9958 0.73779 15.1016 0.482395 15.2899 0.294092C15.4782 0.105788 15.7336 0 15.9999 0C16.2662 0 16.5216 0.105788 16.7099 0.294092L25.7099 9.29409C25.8037 9.38706 25.8781 9.49766 25.9288 9.61951C25.9796 9.74137 26.0057 9.87208 26.0057 10.0041C26.0057 10.1361 25.9796 10.2668 25.9288 10.3887C25.8781 10.5105 25.8037 10.6211 25.7099 10.7141L16.7099 19.7141C16.6165 19.8068 16.5057 19.8801 16.3838 19.9299C16.262 19.9796 16.1315 20.0049 15.9999 20.0041Z" fill="#DB3022"/>
<path d="M25 11.0039H1C0.734784 11.0039 0.48043 10.8986 0.292893 10.711C0.105357 10.5235 0 10.2691 0 10.0039C0 9.73869 0.105357 9.48434 0.292893 9.2968C0.48043 9.10926 0.734784 9.00391 1 9.00391H25C25.2652 9.00391 25.5196 9.10926 25.7071 9.2968C25.8946 9.48434 26 9.73869 26 10.0039C26 10.2691 25.8946 10.5235 25.7071 10.711C25.5196 10.8986 25.2652 11.0039 25 11.0039Z" fill="#DB3022"/>
</svg>
