<svg width="19" height="19" viewBox="0 0 19 19" fill="none" xmlns="http://www.w3.org/2000/svg">
<path d="M14.3829 14.6977V18.5254C14.3829 18.9561 13.8573 19.1588 13.5652 18.854L9.05384 14.6977H5.25015C4.06428 14.6977 3.09599 13.7295 3.09599 12.5436V4.25288C3.09599 3.06724 4.06428 2.09896 5.25015 2.09896H16.0593C17.2452 2.09896 18.2135 3.06701 18.2135 4.25288V12.5436C18.2135 13.7295 17.2452 14.6977 16.0593 14.6977H14.3829ZM6.69315 7.26975C7.14234 7.26975 7.50642 7.63384 7.50642 8.08302C7.50642 8.53221 7.14234 8.89629 6.69315 8.89629C6.24397 8.89629 5.87988 8.53221 5.87988 8.08302C5.87988 7.63384 6.24397 7.26975 6.69315 7.26975ZM14.6163 7.26975C15.0655 7.26975 15.4296 7.63384 15.4296 8.08302C15.4296 8.53221 15.0655 8.89629 14.6163 8.89629C14.1671 8.89629 13.8031 8.53221 13.8031 8.08302C13.8031 7.63384 14.1671 7.26975 14.6163 7.26975ZM11.9753 7.26975C12.4245 7.26975 12.7885 7.63384 12.7885 8.08302C12.7885 8.53221 12.4245 8.89629 11.9753 8.89629C11.5261 8.89629 11.162 8.53221 11.162 8.08302C11.162 7.63384 11.5261 7.26975 11.9753 7.26975ZM9.33421 7.26975C9.78339 7.26975 10.1475 7.63384 10.1475 8.08302C10.1475 8.53221 9.78339 8.89629 9.33421 8.89629C8.88502 8.89629 8.52094 8.53221 8.52094 8.08302C8.52094 7.63384 8.88502 7.26975 9.33421 7.26975ZM2.15415 11.6487C2.77883 11.6487 2.77883 12.5988 2.15415 12.5988C0.968289 12.5988 0 11.6305 0 10.4446V2.15392C0 0.968289 0.968289 0 2.15415 0H12.9636C13.5882 0 13.5882 0.949889 12.9636 0.949889H2.15415C1.49291 0.949889 0.950119 1.49268 0.950119 2.15392V10.4446C0.950119 11.1059 1.49291 11.6487 2.15415 11.6487ZM13.433 17.4432V14.2226C13.433 13.9604 13.6457 13.7476 13.9079 13.7476H16.0593C16.7206 13.7476 17.2636 13.2048 17.2636 12.5436V4.25288C17.2636 3.59164 16.7206 3.04884 16.0593 3.04884H5.25015C4.58868 3.04884 4.04588 3.59164 4.04588 4.25288V12.5436C4.04588 13.2048 4.58868 13.7476 5.25015 13.7476L9.23784 13.7488C9.35261 13.7488 9.46784 13.7899 9.55892 13.8739L13.433 17.4432Z" fill="#DB3022"/>
</svg>
