<svg width="23" height="24" viewBox="0 0 23 24" fill="none" xmlns="http://www.w3.org/2000/svg">
<path d="M18.1678 18.5656V23.4005C18.1678 23.9446 17.504 24.2006 17.135 23.8156L11.4364 18.5656H6.63176C5.13383 18.5656 3.91073 17.3425 3.91073 15.8445V5.37206C3.91073 3.87441 5.13383 2.65131 6.63176 2.65131H20.2855C21.7834 2.65131 23.0065 3.87412 23.0065 5.37206V15.8445C23.0065 17.3425 21.7834 18.5656 20.2855 18.5656H18.1678ZM8.45451 9.18285C9.0219 9.18285 9.48179 9.64274 9.48179 10.2101C9.48179 10.7775 9.0219 11.2374 8.45451 11.2374C7.88711 11.2374 7.42722 10.7775 7.42722 10.2101C7.42722 9.64274 7.88711 9.18285 8.45451 9.18285ZM18.4627 9.18285C19.0301 9.18285 19.49 9.64274 19.49 10.2101C19.49 10.7775 19.0301 11.2374 18.4627 11.2374C17.8953 11.2374 17.4354 10.7775 17.4354 10.2101C17.4354 9.64274 17.8953 9.18285 18.4627 9.18285ZM15.1267 9.18285C15.694 9.18285 16.1539 9.64274 16.1539 10.2101C16.1539 10.7775 15.694 11.2374 15.1267 11.2374C14.5593 11.2374 14.0994 10.7775 14.0994 10.2101C14.0994 9.64274 14.5593 9.18285 15.1267 9.18285ZM11.7906 9.18285C12.358 9.18285 12.8179 9.64274 12.8179 10.2101C12.8179 10.7775 12.358 11.2374 11.7906 11.2374C11.2232 11.2374 10.7633 10.7775 10.7633 10.2101C10.7633 9.64274 11.2232 9.18285 11.7906 9.18285ZM2.72104 14.7141C3.5101 14.7141 3.5101 15.9143 2.72104 15.9143C1.2231 15.9143 0 14.6912 0 13.1932V2.72075C0 1.2231 1.2231 0 2.72104 0H16.375C17.1641 0 17.1641 1.19986 16.375 1.19986H2.72104C1.88578 1.19986 1.20015 1.88549 1.20015 2.72075V13.1932C1.20015 14.0285 1.88578 14.7141 2.72104 14.7141ZM16.968 22.0335V17.9654C16.968 17.6342 17.2367 17.3654 17.5679 17.3654H20.2855C21.1207 17.3654 21.8066 16.6798 21.8066 15.8445V5.37206C21.8066 4.53681 21.1207 3.85117 20.2855 3.85117H6.63176C5.79622 3.85117 5.11059 4.53681 5.11059 5.37206V15.8445C5.11059 16.6798 5.79622 17.3654 6.63176 17.3654L11.6689 17.3669C11.8138 17.3669 11.9594 17.4189 12.0744 17.5249L16.968 22.0335Z" fill="black"/>
</svg>
